<?xml version="1.0" encoding="UTF-8"?><svg id="Layer_2" xmlns="http://www.w3.org/2000/svg" xmlns:xlink="http://www.w3.org/1999/xlink" viewBox="0 0 168.48 168.24"><defs><style>.cls-1{fill:#17365f;filter:url(#drop-shadow-1);stroke-width:0px;}</style><filter id="drop-shadow-1" filterUnits="userSpaceOnUse"><feOffset dx="7" dy="7"/><feGaussianBlur result="blur" stdDeviation="5"/><feFlood flood-color="#231f20" flood-opacity=".75"/><feComposite in2="blur" operator="in"/><feComposite in="SourceGraphic"/></filter></defs><g id="Layer_2-2"><path class="cls-1" d="M77.17,8.04C39.01,8.04,8.07,38.98,8.07,77.14s30.94,69.1,69.1,69.1,69.1-30.94,69.1-69.1S115.33,8.04,77.17,8.04ZM111.57,54.47l-34.02,52.77c-1.33,2.06-3.5,3.24-5.77,3.4-.52.11-1.04.17-1.57.17-1.85,0-3.69-.68-5.14-2.04l-24.25-22.86c-3.01-2.84-3.15-7.59-.31-10.6,2.84-3.01,7.59-3.15,10.6-.31l18.28,17.23,29.58-45.88c2.25-3.48,6.89-4.48,10.37-2.24,3.48,2.24,4.48,6.89,2.24,10.37Z"/></g></svg>